<svg width="200" height="16" viewBox="0 0 200 16" fill="none" xmlns="http://www.w3.org/2000/svg">
<path fill-rule="evenodd" clip-rule="evenodd" d="M189 0H195C197.761 0 200 2.239 200 5V11C200 13.761 197.761 16 195 16H189C186.239 16 184 13.761 184 11V5C184 2.239 186.239 0 189 0ZM195 14.5C196.93 14.5 198.5 12.93 198.5 11V5C198.5 3.07 196.93 1.5 195 1.5H189C187.07 1.5 185.5 3.07 185.5 5V11C185.5 12.93 187.07 14.5 189 14.5H195ZM188 8C188 5.791 189.791 4 192 4C194.209 4 196 5.791 196 8C196 10.209 194.209 12 192 12C189.791 12 188 10.209 188 8ZM189.5 8C189.5 9.378 190.622 10.5 192 10.5C193.378 10.5 194.5 9.378 194.5 8C194.5 6.621 193.378 5.5 192 5.5C190.622 5.5 189.5 6.621 189.5 8ZM196.833 3.7C196.833 3.99437 196.594 4.233 196.3 4.233C196.006 4.233 195.767 3.99437 195.767 3.7C195.767 3.40564 196.006 3.167 196.3 3.167C196.594 3.167 196.833 3.40564 196.833 3.7Z" fill="#B0B8BC"/>
<path fill-rule="evenodd" clip-rule="evenodd" d="M151.456 2.75875C152.415 2.81275 152.886 2.95475 153.32 3.72675C153.772 4.49775 154 5.82575 154 8.16475V8.16775V8.17275C154 10.5007 153.772 11.8387 153.321 12.6017C152.887 13.3737 152.416 13.5137 151.457 13.5787C150.498 13.6337 148.089 13.6667 146.002 13.6667C143.911 13.6667 141.501 13.6337 140.543 13.5777C139.586 13.5127 139.115 13.3727 138.677 12.6007C138.23 11.8377 138 10.4997 138 8.17175V8.16975V8.16675V8.16375C138 5.82575 138.23 4.49775 138.677 3.72675C139.115 2.95375 139.587 2.81275 140.544 2.75775C141.501 2.69375 143.911 2.66675 146.002 2.66675C148.089 2.66675 150.498 2.69375 151.456 2.75875ZM149 8.16675L144 5.16675V11.1667L149 8.16675Z" fill="#B0B8BC"/>
<path d="M108 2.87225C107.405 3.13325 106.771 3.30625 106.11 3.39025C106.79 2.98425 107.309 2.34625 107.553 1.57725C106.919 1.95525 106.219 2.22225 105.473 2.37125C104.871 1.73025 104.013 1.33325 103.077 1.33325C101.261 1.33325 99.799 2.80725 99.799 4.61425C99.799 4.87425 99.821 5.12425 99.875 5.36225C97.148 5.22925 94.735 3.92225 93.114 1.93125C92.831 2.42225 92.665 2.98425 92.665 3.58925C92.665 4.72525 93.25 5.73225 94.122 6.31525C93.595 6.30525 93.078 6.15225 92.64 5.91125C92.64 5.92125 92.64 5.93425 92.64 5.94725C92.64 7.54125 93.777 8.86525 95.268 9.17025C95.001 9.24325 94.71 9.27825 94.408 9.27825C94.198 9.27825 93.986 9.26625 93.787 9.22225C94.212 10.5213 95.418 11.4763 96.852 11.5073C95.736 12.3803 94.319 12.9063 92.785 12.9063C92.516 12.9063 92.258 12.8943 92 12.8613C93.453 13.7983 95.175 14.3333 97.032 14.3333C103.068 14.3333 106.368 9.33325 106.368 4.99925C106.368 4.85425 106.363 4.71425 106.356 4.57525C107.007 4.11325 107.554 3.53625 108 2.87225Z" fill="#B0B8BC"/>
<path fill-rule="evenodd" clip-rule="evenodd" d="M49.5 1.75C49.5 2.7165 48.7165 3.5 47.75 3.5C46.7835 3.5 46 2.7165 46 1.75C46 0.783502 46.7835 0 47.75 0C48.7165 0 49.5 0.783502 49.5 1.75ZM46 5H49.578V16H46V5ZM59.2998 5.12119C59.2954 5.11973 59.2909 5.11825 59.2864 5.11678C59.2616 5.10856 59.2367 5.10033 59.21 5.093C59.162 5.082 59.114 5.073 59.065 5.065C58.875 5.027 58.667 5 58.423 5C56.337 5 55.014 6.517 54.578 7.103V5H51V16H54.578V10C54.578 10 57.282 6.234 58.423 9V16H62V8.577C62 6.915 60.861 5.53 59.324 5.129C59.3159 5.12643 59.3078 5.12382 59.2998 5.12119Z" fill="#B0B8BC"/>
<path d="M9 5.5V3.5C9 2.948 9.448 2.5 10 2.5H11V0H9C7.343 0 6 1.343 6 3V5.5H4V8H6V16H9V8H11L12 5.5H9Z" fill="#B0B8BC"/>
</svg>
